<svg width="138" height="139" viewBox="0 0 138 139" fill="none" xmlns="http://www.w3.org/2000/svg">
<path d="M135.998 55.2086C130.917 34.0787 118.71 18.3129 99.5986 8.11341C86.4439 1.09258 72.3029 -0.603199 57.6653 1.94047C54.9407 2.41586 52.2374 3.05089 49.5518 3.71431C48.9342 3.8453 48.4027 4.23533 48.0925 4.78516C47.7823 5.33498 47.7233 5.99159 47.9305 6.58791C48.4698 7.98214 49.5412 8.17372 50.8325 7.748C51.1128 7.65576 51.3788 7.52095 51.6556 7.42516C63.3628 3.35954 75.1126 2.86996 86.5716 7.88281C102.589 14.893 112.739 26.5329 113.889 44.7004C114.172 49.1208 113.651 53.4277 111.902 57.5288C111.228 59.1075 110.405 60.594 108.425 60.9275C108.29 57.9935 108.195 55.166 108.028 52.3457C106.705 30.3289 89.3352 14.5843 69.1774 14.3715C59.3894 14.2686 50.1939 16.5001 42.5345 22.7759C28.1701 34.5328 23.3524 50.0929 27.5634 67.7248C31.7426 85.2289 43.5563 96.0138 61.0817 100.392C61.513 100.529 61.9369 100.689 62.3517 100.871C56.115 103.765 50.0165 104.397 43.8011 102.336C35.943 99.7282 30.1461 94.3003 25.708 87.6059C13.2806 68.7749 13.4367 49.4188 24.0867 29.8641C27.1058 24.3227 31.214 19.5972 35.9962 15.4677C37.1137 14.5027 37.5111 13.2824 36.5248 12.03C35.6131 10.8735 34.3572 10.6784 33.0304 11.3382C32.3906 11.6394 31.7781 11.9955 31.1998 12.4025C11.2229 27.2637 0.214562 46.6907 0.934735 72.0316C1.23983 82.6746 5.70278 91.4161 14.2704 97.6528C28.1594 107.767 43.8543 109.325 60.2231 106.075C64.193 105.287 67.9464 103.397 71.8027 102.009C70.2483 104.657 68.2223 106.998 65.8249 108.917C59.9358 113.685 53.103 115.955 45.6033 116.498C35.0312 117.264 25.002 115.718 16.0087 109.658C15.324 109.197 14.6819 108.622 13.9298 108.335C13.395 108.167 12.8123 108.262 12.3582 108.59C12.0921 108.867 12.1276 109.694 12.3582 110.126C12.7615 110.846 13.2538 111.513 13.8234 112.11C21.0109 120.496 30.2987 124.275 41.1793 124.416C52.2019 124.569 62.9548 123.022 73.3104 119.095C89.0337 113.142 102 103.652 110.635 89.0214C116.95 78.3323 120.061 66.6711 119.299 54.1443C119.217 52.7643 119.561 51.6184 120.977 51.1962C122.506 50.7386 123.637 51.4197 124.315 52.8069C124.78 53.6297 125.126 54.515 125.34 55.4357C125.887 58.6853 126.681 61.9527 126.71 65.2201C126.802 76.0618 123.744 86.1336 118.061 95.2937C106.669 113.653 90.1192 125.066 69.3229 130.38C63.2635 131.93 57.0444 132.917 50.7438 131.895C48.6152 131.54 46.5398 130.799 44.4361 130.235C43.4179 129.961 42.3678 129.802 41.8357 130.987C41.3035 132.172 41.9492 133.023 42.978 133.598C43.339 133.8 43.7208 133.963 44.1168 134.084C47.4445 135.095 50.7261 136.337 54.1176 137.046C70.6816 140.53 86.5006 138.405 101.5 130.44C131.769 114.366 141.855 79.574 135.998 55.2086ZM68.3083 95.7726C49.6547 95.6591 34.9603 80.8724 34.9603 62.0946C34.9603 42.8486 49.6724 27.7781 68.4963 27.7781C87.1321 27.7781 102.642 42.7102 102.671 61.6157C102.699 81.8587 86.9973 95.8932 68.3083 95.7726Z" fill="white"/>
<path d="M80.6818 81.4148C67.0694 89.0813 50.924 82.8339 47.8163 81.578C48.7118 83.149 49.829 84.5828 51.1333 85.8352C53.5848 88.1873 56.0255 89.2126 58.2003 90.1244C65.1714 93.0405 72.1461 93.3173 79.0889 90.8729C86.0317 88.4286 91.6051 83.9656 95.3798 77.4273C97.5665 73.5209 98.8968 69.1939 99.2822 64.7337C99.5891 61.3131 99.3496 57.8654 98.5727 54.52C97.888 58.685 95.8481 67.2916 88.7953 74.8765C86.4325 77.4489 83.6976 79.6528 80.6818 81.4148Z" fill="white"/>
</svg>
